<svg width="192" height="31" viewBox="0 0 192 31" fill="none" xmlns="http://www.w3.org/2000/svg">
<g clip-path="url(#clip0_1217_2)">
<path d="M0.298953 12.88C-0.0295976 13.1198 -0.0985934 13.5864 0.151105 13.9116L1.03162 15.0583C1.23204 15.3211 1.23204 15.6825 1.03162 15.9421L0.154391 17.0887C-0.0953079 17.414 -0.0263121 17.8772 0.302239 18.1204L1.46531 18.9713C1.73144 19.1652 1.83329 19.5134 1.71501 19.8223L1.19261 21.1693C1.04476 21.5504 1.24189 21.9809 1.6263 22.1188L2.97664 22.6018C3.28877 22.7135 3.4859 23.0191 3.45633 23.3476L3.33148 24.7867C3.29534 25.1941 3.60418 25.5522 4.01487 25.5752L5.44078 25.6573C5.76933 25.677 6.04531 25.9169 6.11102 26.2389L6.39686 27.6516C6.479 28.0558 6.87655 28.3087 7.27738 28.2167L8.66715 27.8915C8.98913 27.8159 9.32425 27.9671 9.47867 28.2627L10.1456 29.5342C10.3362 29.8989 10.7929 30.0336 11.151 29.8299L12.3896 29.1268C12.6788 28.9626 13.0402 29.0151 13.2734 29.255L14.2689 30.2833C14.5548 30.579 15.0279 30.579 15.3137 30.2833L16.3092 29.255C16.5392 29.0151 16.9039 28.9626 17.1931 29.1268L18.4317 29.8299C18.7898 30.0336 19.2432 29.8989 19.4371 29.5342L20.104 28.2627C20.2584 27.9703 20.5903 27.8159 20.9155 27.8915L22.3053 28.2167C22.7061 28.3087 23.1037 28.0558 23.1858 27.6516L23.4717 26.2389C23.5374 25.9136 23.8134 25.677 24.1419 25.6573L25.5678 25.5752C25.9785 25.5522 26.2873 25.1941 26.2512 24.7867L26.1264 23.3476C26.0968 23.0191 26.2939 22.7102 26.606 22.6018L27.9564 22.1188C28.3408 21.9809 28.5379 21.5537 28.3901 21.1693L27.8677 19.8223C27.7494 19.5134 27.8512 19.1652 28.1174 18.9713L29.2804 18.1204C29.609 17.8805 29.678 17.414 29.4283 17.0887L28.5511 15.9421C28.3506 15.6825 28.3506 15.3178 28.5511 15.0583L29.4316 13.9116C29.6813 13.5864 29.6123 13.1231 29.2837 12.88L28.1207 12.029C27.8545 11.8352 27.7527 11.4869 27.871 11.1781L28.3934 9.83103C28.5412 9.44991 28.3441 9.01951 27.9597 8.88152L26.6093 8.39855C26.2972 8.28684 26.1001 7.98129 26.1296 7.65274L26.2545 6.21368C26.2906 5.80628 25.9818 5.44816 25.5711 5.42516L24.1452 5.34302C23.8134 5.32331 23.5374 5.08347 23.4749 4.76149L23.1891 3.34872C23.107 2.94788 22.7094 2.69161 22.3119 2.78361L20.9221 3.10887C20.6001 3.18444 20.2683 3.03331 20.1139 2.73761L19.4469 1.4694C19.2564 1.10471 18.7997 0.973291 18.4448 1.17371L17.2029 1.87681C16.9138 2.04108 16.5524 1.98851 16.3191 1.74867L15.3236 0.720307C15.0378 0.424611 14.5646 0.424611 14.2788 0.720307L13.2833 1.74867C13.0533 1.98851 12.6886 2.04108 12.3995 1.87681L11.1576 1.17371C10.7994 0.970006 10.346 1.10471 10.1555 1.4694L9.48853 2.73761C9.33411 3.03002 9.00227 3.18444 8.68029 3.10887L7.29052 2.78361C6.88969 2.69161 6.49214 2.9446 6.41329 3.34872L6.12745 4.76149C6.06174 5.08675 5.78576 5.32659 5.45721 5.34302L4.03129 5.42516C3.6206 5.44816 3.31177 5.80628 3.34791 6.21368L3.47276 7.65274C3.50233 7.98129 3.3052 8.29012 2.99307 8.39855L1.64273 8.88152C1.25832 9.01951 1.06119 9.44662 1.20904 9.83103L1.73144 11.1781C1.84971 11.4869 1.74786 11.8352 1.48174 12.029L0.318666 12.88H0.298953Z" fill="white"/>
<path d="M7.12622 9.69287L14.8012 22.7495L22.4761 9.69287H19.4075L14.8045 17.5288L10.162 9.69287H7.12951H7.12622Z" fill="#3DD491"/>
<path d="M10.1588 9.69287L14.821 17.6307L19.4075 9.69287H16.5787L14.821 12.7451L13.0238 9.69287H10.1588Z" fill="#2C3D4F"/>
<path d="M46.8054 17.8705H46.697L43.8945 9.06201H41.1708L45.1725 20.6566H48.3332L52.3284 9.06201H49.6113L46.8054 17.8705Z" fill="url(#paint0_linear_1217_2)"/>
<path d="M59.2509 16.9541C59.2542 17.3418 59.1786 17.6703 59.0209 17.9332C58.8632 18.196 58.6595 18.3964 58.4065 18.5311C58.1536 18.6658 57.8809 18.7315 57.5917 18.7315C57.135 18.7315 56.7704 18.5837 56.4977 18.2847C56.225 17.9857 56.087 17.5816 56.0837 17.0691V11.9634H53.6721V17.4995C53.6754 18.1796 53.8003 18.7611 54.05 19.2474C54.2964 19.7336 54.6413 20.1114 55.0816 20.3743C55.5219 20.6371 56.0344 20.7718 56.6159 20.7718C57.2698 20.7718 57.8217 20.6174 58.2784 20.3086C58.7318 19.9997 59.0571 19.5891 59.2542 19.0798H59.3462V20.6601H61.6625V11.9667H59.2509V16.9606V16.9541Z" fill="url(#paint1_linear_1217_2)"/>
<path d="M70.3625 12.9454C69.9912 12.5807 69.5575 12.3047 69.0614 12.1207C68.5653 11.9367 68.0298 11.8447 67.4581 11.8447C66.6039 11.8447 65.8613 12.032 65.2305 12.4098C64.5997 12.7877 64.1102 13.3134 63.7619 13.9902C63.4136 14.667 63.2428 15.4522 63.2428 16.3459C63.2428 17.2395 63.4169 18.0576 63.7619 18.7246C64.1102 19.3948 64.603 19.9107 65.247 20.2753C65.8909 20.64 66.6597 20.8207 67.5534 20.8207C68.2696 20.8207 68.9037 20.709 69.4524 20.4889C70.0011 20.2688 70.4512 19.9599 70.7995 19.5591C71.1477 19.1616 71.381 18.695 71.4927 18.1595L69.2619 18.0116C69.1797 18.2318 69.0582 18.4157 68.9004 18.5669C68.7427 18.718 68.5522 18.8297 68.3288 18.9053C68.1054 18.9809 67.8622 19.017 67.5928 19.017C67.1887 19.017 66.8404 18.9316 66.5447 18.7607C66.249 18.5899 66.0223 18.35 65.8614 18.0346C65.7004 17.7225 65.6215 17.3512 65.6215 16.9208V16.9143H71.542V16.2506C71.542 15.5114 71.4369 14.8641 71.2299 14.3121C71.0229 13.7602 70.7338 13.3002 70.3625 12.9322V12.9454ZM65.6281 15.4292C65.6412 15.1171 65.7201 14.8313 65.8646 14.5717C66.0223 14.2891 66.2425 14.0657 66.525 13.8982C66.8076 13.7306 67.1296 13.6452 67.4975 13.6452C67.8655 13.6452 68.1579 13.7208 68.424 13.8752C68.6902 14.0296 68.8972 14.2399 69.0483 14.506C69.1994 14.7754 69.275 15.081 69.275 15.4292H65.6281Z" fill="url(#paint2_linear_1217_2)"/>
<path d="M74.5253 18.097C74.1507 18.097 73.832 18.2285 73.5659 18.4946C73.2998 18.7574 73.1683 19.0761 73.1683 19.4441C73.1683 19.8121 73.2998 20.1373 73.5659 20.4035C73.832 20.6696 74.1507 20.801 74.5253 20.801C74.7717 20.801 74.9951 20.7386 75.1988 20.617C75.4025 20.4955 75.5668 20.3312 75.6949 20.1242C75.8197 19.9172 75.8855 19.6905 75.8855 19.4408C75.8855 19.0695 75.7507 18.7541 75.478 18.4913C75.2054 18.2285 74.8899 18.0938 74.5285 18.0938L74.5253 18.097Z" fill="url(#paint3_linear_1217_2)"/>
<path d="M77.86 21.0475C77.86 21.376 77.7812 21.6224 77.6235 21.7867C77.4658 21.951 77.1931 22.0331 76.8054 22.0331C76.7528 22.0331 76.7035 22.0331 76.6543 22.0331C76.6083 22.0331 76.5524 22.0298 76.4867 22.0233V23.9091C76.5721 23.9124 76.6543 23.9157 76.7331 23.919C76.812 23.9223 76.8908 23.919 76.9729 23.919C77.6563 23.919 78.2444 23.8237 78.7373 23.6299C79.2301 23.436 79.6079 23.1338 79.8708 22.7198C80.1336 22.3058 80.2683 21.7604 80.2683 21.0902V11.9663H77.8568V21.0507L77.86 21.0475Z" fill="url(#paint4_linear_1217_2)"/>
<path d="M79.0592 8.40186C78.7044 8.40186 78.3989 8.52013 78.1426 8.75998C77.8863 8.99982 77.7582 9.28566 77.7582 9.61749C77.7582 9.94933 77.8863 10.2417 78.1426 10.4816C78.3989 10.7214 78.7044 10.8397 79.0592 10.8397C79.4141 10.8397 79.7295 10.7214 79.9858 10.4816C80.242 10.2417 80.3669 9.95262 80.3669 9.61749C80.3669 9.28237 80.2387 8.99982 79.9858 8.75998C79.7295 8.52013 79.4239 8.40186 79.0592 8.40186Z" fill="url(#paint5_linear_1217_2)"/>
<path d="M89.0046 16.4447C88.5906 16.0603 87.9598 15.781 87.1154 15.6069L85.5417 15.2882C85.1375 15.2028 84.8517 15.0878 84.6874 14.9432C84.5199 14.7987 84.4377 14.6245 84.4377 14.4175C84.4377 14.158 84.5659 13.9477 84.8221 13.7933C85.0784 13.6356 85.3938 13.56 85.7684 13.56C86.0476 13.56 86.2875 13.606 86.4912 13.698C86.6916 13.79 86.8559 13.9116 86.9807 14.066C87.1056 14.2204 87.1877 14.3913 87.2239 14.5785L89.4317 14.4438C89.3266 13.6455 88.9586 13.0113 88.3245 12.5481C87.6937 12.0848 86.8263 11.8516 85.7289 11.8516C84.9864 11.8516 84.3359 11.96 83.7839 12.1801C83.232 12.4002 82.8016 12.7091 82.4993 13.1132C82.1937 13.5173 82.0426 13.997 82.0426 14.5555C82.0426 15.2061 82.2496 15.7383 82.6636 16.1589C83.0775 16.5761 83.7083 16.8718 84.556 17.0427L86.0608 17.3417C86.4386 17.4172 86.7179 17.5256 86.8986 17.6669C87.0793 17.8082 87.1713 17.9889 87.1746 18.209C87.1713 18.4686 87.0399 18.6821 86.7803 18.8464C86.5208 19.0107 86.1823 19.0928 85.7585 19.0928C85.3347 19.0928 84.9766 19.0008 84.7006 18.8168C84.4246 18.6329 84.2505 18.3667 84.1815 18.0152L81.8093 18.14C81.9276 18.9713 82.3252 19.6251 83.0053 20.1081C83.6854 20.5877 84.602 20.8309 85.7519 20.8309C86.5076 20.8309 87.1746 20.7126 87.7528 20.4727C88.3311 20.2329 88.7878 19.8978 89.1229 19.4674C89.458 19.037 89.6223 18.5376 89.6223 17.9659C89.6223 17.3384 89.4153 16.8324 88.998 16.448L89.0046 16.4447Z" fill="url(#paint6_linear_1217_2)"/>
<path d="M98.5752 11.5163C99.0188 11.2206 99.5445 11.0727 100.142 11.0727C100.474 11.0727 100.783 11.1187 101.069 11.214C101.355 11.3093 101.604 11.444 101.825 11.6214C102.045 11.7988 102.222 12.0124 102.363 12.2621C102.501 12.5118 102.597 12.7976 102.639 13.1196H105.12C105.041 12.4494 104.86 11.8514 104.578 11.3323C104.295 10.8132 103.934 10.3696 103.487 10.0115C103.04 9.65011 102.531 9.37741 101.956 9.18685C101.381 8.99958 100.757 8.9043 100.087 8.9043C99.0681 8.9043 98.1514 9.13757 97.3366 9.60411C96.5218 10.0707 95.8745 10.7475 95.4014 11.6346C94.925 12.5216 94.6885 13.596 94.6885 14.8609C94.6885 16.1258 94.925 17.1936 95.3949 18.0807C95.8647 18.9678 96.5054 19.6446 97.3202 20.1112C98.135 20.5777 99.0582 20.8143 100.09 20.8143C100.832 20.8143 101.499 20.7026 102.091 20.4759C102.682 20.2525 103.191 19.9469 103.618 19.5592C104.046 19.1715 104.387 18.7313 104.644 18.2417C104.9 17.7489 105.058 17.2364 105.123 16.7041L102.643 16.6942C102.587 17.0031 102.485 17.2791 102.34 17.5222C102.196 17.762 102.012 17.969 101.795 18.1366C101.575 18.3041 101.325 18.4323 101.046 18.5177C100.763 18.6031 100.461 18.6491 100.133 18.6491C99.5477 18.6491 99.0319 18.5046 98.5884 18.2187C98.1448 17.9329 97.7966 17.509 97.5502 16.9439C97.3037 16.3821 97.1789 15.6889 97.1789 14.8609C97.1789 14.033 97.3005 13.3726 97.5469 12.8075C97.7933 12.2424 98.1383 11.812 98.5818 11.5163H98.5752Z" fill="white"/>
<path d="M113.61 12.9454C113.238 12.5807 112.805 12.3047 112.309 12.1207C111.813 11.9367 111.277 11.8447 110.705 11.8447C109.851 11.8447 109.109 12.032 108.478 12.4098C107.847 12.7877 107.357 13.3134 107.009 13.9902C106.661 14.667 106.49 15.4522 106.49 16.3459C106.49 17.2395 106.664 18.0576 107.009 18.7246C107.357 19.3948 107.85 19.9107 108.494 20.2753C109.138 20.64 109.907 20.8207 110.801 20.8207C111.517 20.8207 112.151 20.709 112.7 20.4889C113.248 20.2688 113.698 19.9599 114.047 19.5591C114.395 19.1616 114.628 18.695 114.74 18.1595L112.509 18.0116C112.427 18.2318 112.305 18.4157 112.148 18.5669C111.99 18.718 111.799 18.8297 111.576 18.9053C111.353 18.9809 111.109 19.017 110.84 19.017C110.436 19.017 110.088 18.9316 109.792 18.7607C109.496 18.5899 109.27 18.35 109.109 18.0346C108.948 17.7225 108.869 17.3512 108.869 16.9208V16.9143H114.789V16.2506C114.789 15.5114 114.684 14.8641 114.477 14.3121C114.27 13.7602 113.981 13.3002 113.61 12.9322V12.9454ZM108.875 15.4292C108.888 15.1171 108.967 14.8313 109.112 14.5717C109.27 14.2891 109.49 14.0657 109.772 13.8982C110.055 13.7306 110.377 13.6452 110.745 13.6452C111.113 13.6452 111.405 13.7208 111.671 13.8752C111.937 14.0296 112.144 14.2399 112.295 14.506C112.447 14.7754 112.522 15.081 112.522 15.4292H108.875Z" fill="white"/>
<path d="M120.88 11.835C120.394 11.835 119.964 11.973 119.589 12.2522C119.215 12.5282 118.949 12.9389 118.791 13.4777H118.699V11.9598H116.36V20.6533H118.771V15.7349C118.771 15.38 118.85 15.0679 119.011 14.7952C119.172 14.5225 119.389 14.3122 119.668 14.1578C119.947 14.0034 120.263 13.9278 120.618 13.9278C120.785 13.9278 120.966 13.941 121.166 13.9673C121.367 13.9935 121.524 14.0231 121.636 14.0593V11.9204C121.531 11.8941 121.409 11.8744 121.268 11.858C121.127 11.8415 120.999 11.835 120.877 11.835H120.88Z" fill="white"/>
<path d="M127.458 18.8004C127.347 18.8201 127.232 18.83 127.12 18.83C126.959 18.83 126.814 18.807 126.693 18.7577C126.571 18.7084 126.476 18.623 126.407 18.5014C126.338 18.3799 126.305 18.2057 126.305 17.9823V13.7703H127.941V11.96H126.305V9.87695H123.893V11.96H122.704V13.7703H123.893V18.2977C123.89 18.8694 124.008 19.3392 124.252 19.7138C124.491 20.0883 124.833 20.3643 125.267 20.5417C125.704 20.7191 126.21 20.798 126.791 20.775C127.103 20.7651 127.37 20.7323 127.59 20.683C127.81 20.6337 127.977 20.5877 128.099 20.5516L127.721 18.7577C127.662 18.7675 127.573 18.784 127.462 18.807L127.458 18.8004Z" fill="white"/>
<path d="M130.717 8.40186C130.362 8.40186 130.057 8.52013 129.801 8.75998C129.544 8.99982 129.416 9.28566 129.416 9.62407C129.416 9.96247 129.544 10.2483 129.797 10.4849C130.054 10.7214 130.359 10.843 130.717 10.843C131.075 10.843 131.381 10.7247 131.637 10.4849C131.894 10.245 132.018 9.9559 132.018 9.62078C132.018 9.28566 131.89 8.99653 131.637 8.75998C131.381 8.52342 131.075 8.40186 130.717 8.40186Z" fill="white"/>
<path d="M131.916 11.96H129.505V20.6534H131.916V11.96Z" fill="white"/>
<path d="M136.996 10.6883C137.134 10.524 137.384 10.4419 137.739 10.4419C137.883 10.4419 138.021 10.4551 138.159 10.4813C138.297 10.5076 138.412 10.5372 138.507 10.5668L138.938 8.75644C138.787 8.71045 138.557 8.66116 138.251 8.60202C137.942 8.54617 137.604 8.5166 137.236 8.5166C136.687 8.5166 136.201 8.62174 135.771 8.82873C135.34 9.03571 135.002 9.34784 134.755 9.76181C134.509 10.1758 134.384 10.6982 134.384 11.329V11.9565H133.155V13.7668H134.384V20.65H136.789V13.7668H138.521V11.9565H136.789V11.3717C136.789 11.076 136.858 10.8493 136.999 10.685L136.996 10.6883Z" fill="white"/>
<path d="M141.201 8.40186C140.847 8.40186 140.541 8.52013 140.285 8.75998C140.029 8.99982 139.9 9.28566 139.9 9.62407C139.9 9.96247 140.029 10.2483 140.282 10.4849C140.538 10.7214 140.843 10.843 141.201 10.843C141.56 10.843 141.865 10.7247 142.121 10.4849C142.378 10.245 142.503 9.9559 142.503 9.62078C142.503 9.28566 142.374 8.99653 142.121 8.75998C141.865 8.52342 141.56 8.40186 141.201 8.40186Z" fill="white"/>
<path d="M142.401 11.96H139.989V20.6534H142.401V11.96Z" fill="white"/>
<path d="M147.306 14.0297C147.582 13.8293 147.907 13.7275 148.282 13.7275C148.722 13.7275 149.08 13.8589 149.353 14.125C149.626 14.3911 149.796 14.7427 149.859 15.1764H152.136C152.103 14.5061 151.919 13.9213 151.587 13.4219C151.255 12.9225 150.805 12.5381 150.233 12.2621C149.665 11.9861 148.998 11.8481 148.242 11.8481C147.362 11.8481 146.603 12.0387 145.965 12.4165C145.328 12.7944 144.835 13.3233 144.49 13.9969C144.145 14.6704 143.971 15.4523 143.971 16.3427C143.971 17.2331 144.142 17.9986 144.484 18.6754C144.825 19.3523 145.315 19.8779 145.956 20.2591C146.596 20.6369 147.362 20.8274 148.252 20.8274C149.024 20.8274 149.695 20.6862 150.263 20.4036C150.828 20.1211 151.275 19.7268 151.597 19.2241C151.919 18.7214 152.1 18.1366 152.139 17.4729H149.862C149.816 17.7785 149.721 18.0413 149.576 18.2582C149.432 18.475 149.248 18.6393 149.028 18.7543C148.807 18.866 148.558 18.9251 148.282 18.9251C147.907 18.9251 147.582 18.8233 147.303 18.6196C147.023 18.4159 146.807 18.1202 146.655 17.7292C146.501 17.3415 146.425 16.8684 146.425 16.3132C146.425 15.7579 146.504 15.3012 146.659 14.9135C146.813 14.5291 147.03 14.2367 147.306 14.033V14.0297Z" fill="white"/>
<path d="M159.945 12.5447C159.6 12.3081 159.206 12.1307 158.763 12.019C158.319 11.9073 157.856 11.8481 157.373 11.8481C156.68 11.8481 156.068 11.9533 155.543 12.1636C155.017 12.3738 154.587 12.6695 154.255 13.0572C153.923 13.4449 153.7 13.9016 153.588 14.4306L155.819 14.6113C155.901 14.3254 156.072 14.0856 156.328 13.895C156.584 13.7045 156.929 13.6092 157.363 13.6092C157.774 13.6092 158.092 13.7077 158.316 13.9049C158.539 14.102 158.654 14.378 158.654 14.7361V14.769C158.654 14.953 158.585 15.0942 158.444 15.1862C158.303 15.2815 158.079 15.3505 157.77 15.3998C157.462 15.4458 157.054 15.4983 156.548 15.5509C156.118 15.5936 155.707 15.6626 155.316 15.7645C154.925 15.8663 154.577 16.0175 154.271 16.2179C153.966 16.4183 153.723 16.6811 153.545 17.0097C153.368 17.3382 153.279 17.7424 153.279 18.2253C153.279 18.8003 153.404 19.2767 153.657 19.6611C153.907 20.0455 154.252 20.3313 154.685 20.5285C155.119 20.7223 155.615 20.8209 156.167 20.8209C156.597 20.8209 156.975 20.7617 157.304 20.6467C157.632 20.5317 157.912 20.3708 158.148 20.1671C158.381 19.9601 158.569 19.7235 158.71 19.4508H158.779V20.6566H161.066V14.792C161.066 14.2761 160.967 13.8293 160.767 13.458C160.566 13.0868 160.294 12.7812 159.949 12.5447H159.945ZM158.667 17.5485C158.667 17.8541 158.588 18.1268 158.434 18.3699C158.28 18.6097 158.066 18.8036 157.793 18.9448C157.521 19.0861 157.209 19.1584 156.854 19.1584C156.499 19.1584 156.18 19.073 155.94 18.9021C155.7 18.7313 155.582 18.4816 155.582 18.153C155.582 17.9263 155.641 17.7358 155.756 17.5846C155.875 17.4302 156.039 17.3087 156.249 17.22C156.459 17.128 156.709 17.0623 156.992 17.0228C157.123 17.0031 157.271 16.9834 157.432 16.9571C157.593 16.9341 157.757 16.9045 157.918 16.8717C158.079 16.8388 158.227 16.8027 158.358 16.7633C158.49 16.7238 158.592 16.6778 158.667 16.6318V17.5551V17.5485Z" fill="white"/>
<path d="M167.081 18.8004C166.97 18.8201 166.855 18.83 166.743 18.83C166.582 18.83 166.437 18.807 166.316 18.7577C166.194 18.7084 166.099 18.623 166.03 18.5014C165.961 18.3799 165.928 18.2057 165.928 17.9823V13.7703H167.564V11.96H165.928V9.87695H163.517V11.96H162.327V13.7703H163.517V18.2977C163.513 18.8694 163.631 19.3392 163.875 19.7138C164.114 20.0883 164.456 20.3643 164.89 20.5417C165.327 20.7191 165.833 20.798 166.414 20.775C166.726 20.7651 166.993 20.7323 167.213 20.683C167.433 20.6337 167.6 20.5877 167.722 20.5516L167.344 18.7577C167.285 18.7675 167.196 18.784 167.085 18.807L167.081 18.8004Z" fill="white"/>
<path d="M170.341 8.40186C169.986 8.40186 169.68 8.52013 169.424 8.75998C169.168 8.99982 169.04 9.28566 169.04 9.62407C169.04 9.96247 169.168 10.2483 169.421 10.4849C169.677 10.7214 169.982 10.843 170.341 10.843C170.699 10.843 171.004 10.7247 171.261 10.4849C171.517 10.245 171.642 9.9559 171.642 9.62078C171.642 9.28566 171.514 8.99653 171.261 8.75998C171.004 8.52342 170.699 8.40186 170.341 8.40186Z" fill="white"/>
<path d="M171.543 11.96H169.132V20.6534H171.543V11.96Z" fill="white"/>
<path d="M179.672 12.41C179.031 12.0354 178.272 11.8481 177.395 11.8481C176.517 11.8481 175.755 12.0354 175.118 12.41C174.477 12.7845 173.984 13.3102 173.636 13.9837C173.288 14.6573 173.117 15.4425 173.117 16.3427C173.117 17.243 173.291 18.015 173.636 18.6886C173.981 19.3621 174.477 19.8878 175.118 20.2623C175.759 20.6369 176.517 20.8242 177.395 20.8242C178.272 20.8242 179.034 20.6369 179.672 20.2623C180.312 19.8878 180.805 19.3621 181.153 18.6886C181.502 18.015 181.672 17.2331 181.672 16.3427C181.672 15.4524 181.498 14.6573 181.153 13.9837C180.805 13.3102 180.312 12.7845 179.672 12.41ZM179.014 17.6766C178.876 18.0742 178.673 18.3863 178.407 18.613C178.137 18.843 177.805 18.9547 177.405 18.9547C177.004 18.9547 176.662 18.8397 176.389 18.613C176.117 18.3863 175.91 18.0709 175.772 17.6766C175.634 17.2791 175.565 16.829 175.565 16.323C175.565 15.817 175.634 15.3669 175.772 14.9694C175.91 14.5718 176.117 14.2597 176.389 14.0297C176.662 13.7997 177 13.6847 177.405 13.6847C177.809 13.6847 178.137 13.7997 178.407 14.0297C178.676 14.2597 178.876 14.5718 179.014 14.9694C179.152 15.3669 179.221 15.817 179.221 16.323C179.221 16.829 179.152 17.2791 179.014 17.6766Z" fill="white"/>
<path d="M190.891 13.3725C190.642 12.8829 190.294 12.5084 189.843 12.2423C189.393 11.9794 188.868 11.8447 188.263 11.8447C187.619 11.8447 187.067 11.9926 186.617 12.2883C186.167 12.584 185.842 12.9848 185.648 13.4908H185.546V11.9564H183.246V20.6499H185.658V15.6231C185.661 15.2485 185.733 14.9298 185.871 14.6637C186.009 14.3976 186.2 14.1939 186.449 14.0559C186.696 13.9146 186.982 13.8456 187.307 13.8456C187.79 13.8456 188.168 13.9967 188.444 14.2957C188.72 14.5947 188.854 15.012 188.851 15.5442V20.6499H191.263V15.1138C191.263 14.437 191.138 13.8555 190.888 13.3659L190.891 13.3725Z" fill="white"/>
</g>
<defs>
<linearGradient id="paint0_linear_1217_2" x1="40.6188" y1="14.8577" x2="89.0932" y2="14.8577" gradientUnits="userSpaceOnUse">
<stop stop-color="#42B883"/>
<stop offset="1" stop-color="#0EBBD2"/>
</linearGradient>
<linearGradient id="paint1_linear_1217_2" x1="40.6188" y1="16.366" x2="89.0932" y2="16.366" gradientUnits="userSpaceOnUse">
<stop stop-color="#42B883"/>
<stop offset="1" stop-color="#0EBBD2"/>
</linearGradient>
<linearGradient id="paint2_linear_1217_2" x1="40.6188" y1="16.336" x2="89.0932" y2="16.336" gradientUnits="userSpaceOnUse">
<stop stop-color="#42B883"/>
<stop offset="1" stop-color="#0EBBD2"/>
</linearGradient>
<linearGradient id="paint3_linear_1217_2" x1="40.6188" y1="19.4507" x2="89.0932" y2="19.4507" gradientUnits="userSpaceOnUse">
<stop stop-color="#42B883"/>
<stop offset="1" stop-color="#0EBBD2"/>
</linearGradient>
<linearGradient id="paint4_linear_1217_2" x1="40.6188" y1="17.9394" x2="89.0932" y2="17.9394" gradientUnits="userSpaceOnUse">
<stop stop-color="#42B883"/>
<stop offset="1" stop-color="#0EBBD2"/>
</linearGradient>
<linearGradient id="paint5_linear_1217_2" x1="40.6188" y1="9.62078" x2="89.0932" y2="9.62078" gradientUnits="userSpaceOnUse">
<stop stop-color="#42B883"/>
<stop offset="1" stop-color="#0EBBD2"/>
</linearGradient>
<linearGradient id="paint6_linear_1217_2" x1="40.6189" y1="16.3363" x2="89.0933" y2="16.3363" gradientUnits="userSpaceOnUse">
<stop stop-color="#42B883"/>
<stop offset="1" stop-color="#0EBBD2"/>
</linearGradient>
<clipPath id="clip0_1217_2">
<rect width="191.263" height="30" fill="white" transform="translate(0 0.5)"/>
</clipPath>
</defs>
</svg>
